<?xml version="1.0" encoding="iso-8859-1"?>
<!-- Generator: Adobe Illustrator 18.1.1, SVG Export Plug-In . SVG Version: 6.00 Build 0)  -->
<svg version="1.1" id="Capa_1" xmlns="http://www.w3.org/2000/svg" xmlns:xlink="http://www.w3.org/1999/xlink" x="0px" y="0px"
	 viewBox="0 0 115.958 115.958" style="enable-background:new 0 0 115.958 115.958;" xml:space="preserve">
<g>
	<path style="fill:#010002;" d="M24.719,38.236H6.786V0h58.947v38.236H46.618v17.418C46.615,55.662,29.092,38.236,24.719,38.236z
		 M74.444,16.967v22.525h11.263v10.261c0,0,10.318-10.261,12.898-10.261h10.565V16.967H74.444z M19.24,78.026v0.49v1.002v0.494
		v6.825v1.496v0.487l2.659,0.916l-2.659,1.55v0.487v1.006v0.494v6.825v1.496v0.49l40.384,13.875l49.542-28.763v-1.99l-2.065-0.784
		l-0.229-0.086l-0.097,2.265l-47.144,27.375l-36.243-12.451l-1.954-0.673v-2.083v-4.738l1.954,0.673l3.021,1.034l33.222,11.42
		l42.427-24.644l5.025-2.917l0.021-0.014l2.061-1.195v-1.986l-2.656-0.916l2.656-1.546v-1.986l-2.061-0.787l-0.229-0.086
		l-0.097,2.265l-2.412,1.403l-0.007,0.004l-8.994,5.225l-35.731,20.75l-26.484-9.108l-5.98-2.054l-3.121-1.07l-0.662-0.222
		L21.434,87.6V85.52v-4.746l1.954,0.673l3.021,1.038l5.028,1.725l3.121,1.07l5.755,1.983l19.319,6.635l28.62-16.624l8.711-5.057
		l0.021-0.011l5.078-2.949l5.025-2.913l0.021-0.014l2.065-1.202v-1.983L68.789,49.266L19.24,78.026z"/>
</g>
<g>
</g>
<g>
</g>
<g>
</g>
<g>
</g>
<g>
</g>
<g>
</g>
<g>
</g>
<g>
</g>
<g>
</g>
<g>
</g>
<g>
</g>
<g>
</g>
<g>
</g>
<g>
</g>
<g>
</g>
</svg>
