<?xml version="1.0" encoding="iso-8859-1"?>
<!-- Generator: Adobe Illustrator 19.0.0, SVG Export Plug-In . SVG Version: 6.00 Build 0)  -->
<svg version="1.1" id="Layer_1" xmlns="http://www.w3.org/2000/svg" xmlns:xlink="http://www.w3.org/1999/xlink" x="0px" y="0px"
	 viewBox="0 0 491.2 491.2" style="enable-background:new 0 0 491.2 491.2;" xml:space="preserve">
<path style="fill:#4C5254;" d="M491.2,245.6c0,135.2-109.6,245.6-245.6,245.6C110.4,491.2,0,380.8,0,245.6C0,109.6,109.6,0,245.6,0
	S491.2,109.6,491.2,245.6z"/>
<path style="fill:#2F423F;" d="M419.2,72c96,96,96,251.2,0,347.2s-251.2,96-347.2,0"/>
<path style="fill:#009CC6;" d="M213.6,320.8c0,11.2-9.6,20.8-20.8,20.8h-30.4c-11.2,0-20.8-9.6-20.8-20.8V170.4
	c0-11.2,9.6-20.8,20.8-20.8h30.4c11.2,0,20.8,9.6,20.8,20.8V320.8z"/>
<path style="fill:#3AC2F2;" d="M213.6,321.6c0,10.4-4,20-12.8,20h-24c-8.8,0-19.2-9.6-19.2-20V192c0-10.4,10.4-18.4,19.2-18.4h24
	c8.8,0,12.8,8.8,12.8,18.4V321.6z"/>
<path style="fill:#009CC6;" d="M349.6,320.8c0,11.2-9.6,20.8-20.8,20.8h-30.4c-11.2,0-20.8-9.6-20.8-20.8V170.4
	c0-11.2,9.6-20.8,20.8-20.8h30.4c11.2,0,20.8,9.6,20.8,20.8V320.8z"/>
<path style="fill:#3AC2F2;" d="M349.6,321.6c0,10.4-8,20-16.8,20h-24c-8.8,0-15.2-9.6-15.2-20V192c0-10.4,6.4-18.4,15.2-18.4h24
	c8.8,0,16.8,8.8,16.8,18.4V321.6z"/>
<g>
</g>
<g>
</g>
<g>
</g>
<g>
</g>
<g>
</g>
<g>
</g>
<g>
</g>
<g>
</g>
<g>
</g>
<g>
</g>
<g>
</g>
<g>
</g>
<g>
</g>
<g>
</g>
<g>
</g>
</svg>
